<svg xmlns="http://www.w3.org/2000/svg"
     width="800" height="800"
     viewBox="-10 -10 350 350"
     preserveAspectRatio="xMidYMid meet"
     >

  <g fill="none"
     stroke="#000000"
     stroke-width="20"
     vector-effect="non-scaling-stroke"
     stroke-linecap="round"
     stroke-linejoin="round"
     >

    <path d="M277.712,57.549c-2.609-3.01-5.323-5.922-8.139-8.738C236.512,15.748,191.073-6.413,143.36,1.669
    c-37.348,6.327-60.382,34.548-58.499,71.529c0.479,9.381,2.465,18.711,6.272,27.318
    c4.313,9.748,13,16.633,17.102,26.218c8.732,20.415-9.968,33.76-28.095,33.76
    c-47.276-2.599-78.503,51.443-63.374,92.725c13.696,37.372,59.732,62.813,96.103,71.896
    c41.408,10.339,86.191,4.129,123.1-17.348C323.773,256.679,344.321,134.368,277.712,57.549z
    M141.002,290.888c-13.254,0-23.999-10.745-23.999-23.999s10.745-23.999,23.999-23.999
    s23.999,10.744,23.999,23.999S154.255,290.888,141.002,290.888z
    M190.097,82.398c0-13.254,10.744-23.999,23.999-23.999
    c13.253,0,23.998,10.745,23.998,23.999s-10.745,23.999-23.998,23.999
    C200.84,106.396,190.097,95.652,190.097,82.398z
    M224.594,261.889c-13.254,0-23.998-10.745-23.998-23.999
    s10.744-23.999,23.998-23.999s23.999,10.744,23.999,23.999
    C248.592,251.145,237.848,261.889,224.594,261.889z
    M256.092,181.894c-13.254,0-23.999-10.744-23.999-24
    c0-13.254,10.745-23.999,23.999-23.999s23.999,10.745,23.999,23.999
    C280.091,171.148,269.346,181.894,256.092,181.894z"/>

  </g>
</svg>