<!DOCTYPE svg PUBLIC "-//W3C//DTD SVG 1.1//EN" "http://www.w3.org/Graphics/SVG/1.1/DTD/svg11.dtd">

<!-- Uploaded to: SVG Find, www.svgfind.com, Transformed by: SVG Find Mixer Tools -->
<svg fill="#000000" width="800px" height="800px" version="1.1" viewBox="144 144 512 512" xmlns="http://www.w3.org/2000/svg">

<g id="SVGRepo_bgCarrier" stroke-width="0"/>

<g id="SVGRepo_tracerCarrier" stroke-linecap="round" stroke-linejoin="round"/>

<g id="SVGRepo_iconCarrier"> <g> <path d="m323.67 647.7h152.65c20.312-0.019531 39.789-8.0977 54.148-22.461 14.363-14.363 22.445-33.836 22.465-54.148v-342.19c-0.019531-20.312-8.1016-39.789-22.465-54.148-14.359-14.363-33.836-22.445-54.148-22.465h-152.65c-20.312 0.019531-39.785 8.1016-54.148 22.465-14.363 14.359-22.441 33.836-22.465 54.148v342.19c0.023437 20.312 8.1016 39.785 22.465 54.148 14.363 14.363 33.836 22.441 54.148 22.461zm-51.422-418.8c0.015625-13.633 5.4414-26.703 15.078-36.344 9.6406-9.6406 22.711-15.062 36.344-15.078h152.65c13.633 0.015625 26.703 5.4375 36.344 15.078s15.062 22.711 15.078 36.344v342.19c-0.015625 13.633-5.4375 26.699-15.078 36.34s-22.711 15.062-36.344 15.082h-152.65c-13.633-0.019531-26.703-5.4414-36.344-15.082-9.6367-9.6406-15.062-22.707-15.078-36.34z"/> <path d="m400 545.68c-5.9727 0-11.703 2.3711-15.926 6.5977-4.2227 4.2227-6.5977 9.9492-6.5977 15.922s2.375 11.703 6.5977 15.926c4.2227 4.2227 9.9531 6.5938 15.926 6.5938s11.699-2.3711 15.922-6.5938 6.5977-9.9531 6.5977-15.926-2.375-11.699-6.5977-15.922c-4.2227-4.2266-9.9492-6.5977-15.922-6.5977z"/> <path d="m387.69 249.71h24.621c6.957 0 12.594-5.6367 12.594-12.594 0-6.957-5.6367-12.594-12.594-12.594h-24.621c-6.9531 0-12.594 5.6367-12.594 12.594 0 6.957 5.6406 12.594 12.594 12.594z"/> </g> </g>

</svg>